<mxfile host="Electron" agent="Mozilla/5.0 (Windows NT 10.0; Win64; x64) AppleWebKit/537.36 (KHTML, like Gecko) draw.io/24.7.8 Chrome/128.0.6613.36 Electron/32.0.1 Safari/537.36" version="24.7.8">
  <diagram name="Page-1" id="W1PldAyx2gu1Kucj3RPL">
    <mxGraphModel dx="1595" dy="921" grid="1" gridSize="10" guides="1" tooltips="1" connect="1" arrows="1" fold="1" page="1" pageScale="1" pageWidth="1169" pageHeight="827" math="0" shadow="0">
      <root>
        <mxCell id="0" />
        <mxCell id="1" parent="0" />
        <mxCell id="T_JfXPTamvkJ0Fs1aWGe-6" value="" style="rounded=0;whiteSpace=wrap;html=1;fillColor=none;dashed=1;" vertex="1" parent="1">
          <mxGeometry x="320" y="160" width="520" height="400" as="geometry" />
        </mxCell>
        <mxCell id="T_JfXPTamvkJ0Fs1aWGe-1" value="" style="rounded=0;whiteSpace=wrap;html=1;fillColor=none;dashed=1;" vertex="1" parent="1">
          <mxGeometry x="120" y="120" width="760" height="480" as="geometry" />
        </mxCell>
        <mxCell id="T_JfXPTamvkJ0Fs1aWGe-3" value="" style="rounded=0;whiteSpace=wrap;html=1;" vertex="1" parent="1">
          <mxGeometry x="120" y="520" width="80" height="80" as="geometry" />
        </mxCell>
        <mxCell id="T_JfXPTamvkJ0Fs1aWGe-2" value="" style="verticalLabelPosition=bottom;html=1;verticalAlign=top;align=center;strokeColor=none;fillColor=#00BEF2;shape=mxgraph.azure.computer;pointerEvents=1;" vertex="1" parent="1">
          <mxGeometry x="135" y="530" width="50" height="45" as="geometry" />
        </mxCell>
        <mxCell id="T_JfXPTamvkJ0Fs1aWGe-20" value="uses" style="rounded=0;orthogonalLoop=1;jettySize=auto;html=1;" edge="1" parent="1" source="T_JfXPTamvkJ0Fs1aWGe-4" target="T_JfXPTamvkJ0Fs1aWGe-9">
          <mxGeometry relative="1" as="geometry" />
        </mxCell>
        <mxCell id="T_JfXPTamvkJ0Fs1aWGe-4" value="" style="shape=image;verticalLabelPosition=bottom;verticalAlign=top;imageAspect=0;aspect=fixed;image=data:image/svg+xml,PHN2ZyB4bWxucz0iaHR0cDovL3d3dy53My5vcmcvMjAwMC9zdmciIHZpZXdCb3g9IjAgMCAzMiAzMiIgaGVpZ2h0PSI4MDBweCIgd2lkdGg9IjgwMHB4Ij48dGl0bGU+ZmlsZV90eXBlX3ZzY29kZTwvdGl0bGU+PHBhdGggc3R5bGU9ImZpbGw6IzAwNjVhOSIgZD0iTTI5LjAxLDUuMDMsMjMuMjQ0LDIuMjU0YTEuNzQyLDEuNzQyLDAsMCwwLTEuOTg5LjMzOEwyLjM4LDE5LjhBMS4xNjYsMS4xNjYsMCwwLDAsMi4zLDIxLjQ0N2MuMDI1LjAyNy4wNS4wNTMuMDc3LjA3N2wxLjU0MSwxLjRhMS4xNjUsMS4xNjUsMCwwLDAsMS40ODkuMDY2TDI4LjE0Miw1Ljc1QTEuMTU4LDEuMTU4LDAsMCwxLDMwLDYuNjcyVjYuNjA1QTEuNzQ4LDEuNzQ4LDAsMCwwLDI5LjAxLDUuMDNaIi8+PHBhdGggc3R5bGU9ImZpbGw6IzAwN2FjYyIgZD0iTTI5LjAxLDI2Ljk3bC01Ljc2NiwyLjc3N2ExLjc0NSwxLjc0NSwwLDAsMS0xLjk4OS0uMzM4TDIuMzgsMTIuMkExLjE2NiwxLjE2NiwwLDAsMSwyLjMsMTAuNTUzYy4wMjUtLjAyNy4wNS0uMDUzLjA3Ny0uMDc3bDEuNTQxLTEuNEExLjE2NSwxLjE2NSwwLDAsMSw1LjQxLDkuMDFMMjguMTQyLDI2LjI1QTEuMTU4LDEuMTU4LDAsMCwwLDMwLDI1LjMyOFYyNS40QTEuNzQ5LDEuNzQ5LDAsMCwxLDI5LjAxLDI2Ljk3WiIvPjxwYXRoIHN0eWxlPSJmaWxsOiMxZjljZjAiIGQ9Ik0yMy4yNDQsMjkuNzQ3YTEuNzQ1LDEuNzQ1LDAsMCwxLTEuOTg5LS4zMzhBMS4wMjUsMS4wMjUsMCwwLDAsMjMsMjguNjg0VjMuMzE2YTEuMDI0LDEuMDI0LDAsMCwwLTEuNzQ5LS43MjQsMS43NDQsMS43NDQsMCwwLDEsMS45ODktLjMzOWw1Ljc2NSwyLjc3MkExLjc0OCwxLjc0OCwwLDAsMSwzMCw2LjZWMjUuNGExLjc0OCwxLjc0OCwwLDAsMS0uOTkxLDEuNTc2WiIvPjwvc3ZnPg==" vertex="1" parent="1">
          <mxGeometry x="160" y="200" width="80" height="80" as="geometry" />
        </mxCell>
        <mxCell id="T_JfXPTamvkJ0Fs1aWGe-7" value="" style="rounded=0;whiteSpace=wrap;html=1;" vertex="1" parent="1">
          <mxGeometry x="320" y="480" width="80" height="80" as="geometry" />
        </mxCell>
        <mxCell id="T_JfXPTamvkJ0Fs1aWGe-5" value="" style="image;sketch=0;aspect=fixed;html=1;points=[];align=center;fontSize=12;image=img/lib/mscae/Docker.svg;" vertex="1" parent="1">
          <mxGeometry x="335" y="499.5" width="50" height="41" as="geometry" />
        </mxCell>
        <mxCell id="T_JfXPTamvkJ0Fs1aWGe-8" value="" style="image;aspect=fixed;html=1;points=[];align=center;fontSize=12;image=img/lib/azure2/general/Folder_Blank.svg;" vertex="1" parent="1">
          <mxGeometry x="160" y="370" width="80" height="64.93" as="geometry" />
        </mxCell>
        <mxCell id="T_JfXPTamvkJ0Fs1aWGe-18" style="edgeStyle=orthogonalEdgeStyle;rounded=0;orthogonalLoop=1;jettySize=auto;html=1;entryX=0;entryY=0;entryDx=0;entryDy=0;" edge="1" parent="1" source="T_JfXPTamvkJ0Fs1aWGe-9" target="T_JfXPTamvkJ0Fs1aWGe-15">
          <mxGeometry relative="1" as="geometry">
            <Array as="points">
              <mxPoint x="620" y="320" />
              <mxPoint x="620" y="320" />
            </Array>
          </mxGeometry>
        </mxCell>
        <mxCell id="T_JfXPTamvkJ0Fs1aWGe-22" value="mounts" style="rounded=0;orthogonalLoop=1;jettySize=auto;html=1;" edge="1" parent="1" source="T_JfXPTamvkJ0Fs1aWGe-9" target="T_JfXPTamvkJ0Fs1aWGe-8">
          <mxGeometry relative="1" as="geometry" />
        </mxCell>
        <mxCell id="T_JfXPTamvkJ0Fs1aWGe-9" value="" style="rounded=0;whiteSpace=wrap;html=1;" vertex="1" parent="1">
          <mxGeometry x="400" y="200" width="160" height="240" as="geometry" />
        </mxCell>
        <mxCell id="T_JfXPTamvkJ0Fs1aWGe-10" value="" style="rounded=0;whiteSpace=wrap;html=1;" vertex="1" parent="1">
          <mxGeometry x="640" y="200" width="160" height="240" as="geometry" />
        </mxCell>
        <mxCell id="T_JfXPTamvkJ0Fs1aWGe-11" value="" style="shape=image;verticalLabelPosition=bottom;verticalAlign=top;imageAspect=0;aspect=fixed;image=data:image/svg+xml,PHN2ZyB4bWxucz0iaHR0cDovL3d3dy53My5vcmcvMjAwMC9zdmciIHZpZXdCb3g9IjAgMCAzMiAzMiIgaGVpZ2h0PSI4MDBweCIgd2lkdGg9IjgwMHB4Ij48dGl0bGU+ZmlsZV90eXBlX3ZzY29kZTwvdGl0bGU+PHBhdGggc3R5bGU9ImZpbGw6IzAwNjVhOSIgZD0iTTI5LjAxLDUuMDMsMjMuMjQ0LDIuMjU0YTEuNzQyLDEuNzQyLDAsMCwwLTEuOTg5LjMzOEwyLjM4LDE5LjhBMS4xNjYsMS4xNjYsMCwwLDAsMi4zLDIxLjQ0N2MuMDI1LjAyNy4wNS4wNTMuMDc3LjA3N2wxLjU0MSwxLjRhMS4xNjUsMS4xNjUsMCwwLDAsMS40ODkuMDY2TDI4LjE0Miw1Ljc1QTEuMTU4LDEuMTU4LDAsMCwxLDMwLDYuNjcyVjYuNjA1QTEuNzQ4LDEuNzQ4LDAsMCwwLDI5LjAxLDUuMDNaIi8+PHBhdGggc3R5bGU9ImZpbGw6IzAwN2FjYyIgZD0iTTI5LjAxLDI2Ljk3bC01Ljc2NiwyLjc3N2ExLjc0NSwxLjc0NSwwLDAsMS0xLjk4OS0uMzM4TDIuMzgsMTIuMkExLjE2NiwxLjE2NiwwLDAsMSwyLjMsMTAuNTUzYy4wMjUtLjAyNy4wNS0uMDUzLjA3Ny0uMDc3bDEuNTQxLTEuNEExLjE2NSwxLjE2NSwwLDAsMSw1LjQxLDkuMDFMMjguMTQyLDI2LjI1QTEuMTU4LDEuMTU4LDAsMCwwLDMwLDI1LjMyOFYyNS40QTEuNzQ5LDEuNzQ5LDAsMCwxLDI5LjAxLDI2Ljk3WiIvPjxwYXRoIHN0eWxlPSJmaWxsOiMxZjljZjAiIGQ9Ik0yMy4yNDQsMjkuNzQ3YTEuNzQ1LDEuNzQ1LDAsMCwxLTEuOTg5LS4zMzhBMS4wMjUsMS4wMjUsMCwwLDAsMjMsMjguNjg0VjMuMzE2YTEuMDI0LDEuMDI0LDAsMCwwLTEuNzQ5LS43MjQsMS43NDQsMS43NDQsMCwwLDEsMS45ODktLjMzOWw1Ljc2NSwyLjc3MkExLjc0OCwxLjc0OCwwLDAsMSwzMCw2LjZWMjUuNGExLjc0OCwxLjc0OCwwLDAsMS0uOTkxLDEuNTc2WiIvPjwvc3ZnPg==" vertex="1" parent="1">
          <mxGeometry x="440" y="240" width="80" height="80" as="geometry" />
        </mxCell>
        <mxCell id="T_JfXPTamvkJ0Fs1aWGe-12" value="" style="shape=image;verticalLabelPosition=bottom;verticalAlign=top;imageAspect=0;aspect=fixed;image=data:image/svg+xml,PHN2ZyB4bWxuczp4bGluaz0iaHR0cDovL3d3dy53My5vcmcvMTk5OS94bGluayIgeG1sbnM9Imh0dHA6Ly93d3cudzMub3JnLzIwMDAvc3ZnIiB2aWV3Qm94PSIwIDAgMzIgMzIiIGhlaWdodD0iODAwcHgiIHdpZHRoPSI4MDBweCI+PGRlZnM+PGxpbmVhckdyYWRpZW50IGdyYWRpZW50VW5pdHM9InVzZXJTcGFjZU9uVXNlIiBncmFkaWVudFRyYW5zZm9ybT0ibWF0cml4KDM3LjEzNCwgMjYuMDAxLCAxMy41NzUsIC0xOS4zODcsIDQ2NzMuNDczLCAtMzk4Mi4wMTkpIiB5Mj0iLTI1MC44NTgiIHgyPSItMzMuMzUzIiB5MT0iLTI1MC45MTEiIHgxPSItMzMuNDIzIiBpZD0iYSI+PHN0b3Agc3RvcC1jb2xvcj0iIzc2NzY3NiIgb2Zmc2V0PSIwIi8+PHN0b3Agb2Zmc2V0PSIxIi8+PC9saW5lYXJHcmFkaWVudD48bGluZWFyR3JhZGllbnQgZ3JhZGllbnRVbml0cz0idXNlclNwYWNlT25Vc2UiIGdyYWRpZW50VHJhbnNmb3JtPSJtYXRyaXgoODEuMDgxLCA1Ni43NzQsIDE3LjMwNiwgLTI0LjcxNSwgNjgwNC4wMjEsIC00MTQ5LjY0NCkiIHkyPSItMjQyLjU4NiIgeDI9Ii0zMi4wMjgiIHkxPSItMjQyLjU2MyIgeDE9Ii0zMi4xMDciIGlkPSJiIj48c3RvcCBzdG9wLWNvbG9yPSIjMDA3OWI5IiBvZmZzZXQ9IjAiLz48c3RvcCBvZmZzZXQ9IjEiLz48L2xpbmVhckdyYWRpZW50PjxsaW5lYXJHcmFkaWVudCB4bGluazpocmVmPSIjYiIgZ3JhZGllbnRUcmFuc2Zvcm09Im1hdHJpeCg2MC4wMDMsIDQyLjAxNSwgMzQuMTg0LCAtNDguODIsIDEwMzQzLjAwNSwgLTEwNDY5LjA4NCkiIHkyPSItMjQzLjQ1NSIgeDI9Ii0zMy4yMjQiIHkxPSItMjQzLjQyMyIgeDE9Ii0zMy4yODIiIGlkPSJjIi8+PGxpbmVhckdyYWRpZW50IGdyYWRpZW50VW5pdHM9InVzZXJTcGFjZU9uVXNlIiB5Mj0iMjYuMjY4IiB4Mj0iMTQuMDExIiB5MT0iMjYuMjY4IiB4MT0iMTIuMzU2IiBpZD0iZCI+PHN0b3Agc3RvcC1jb2xvcj0iIzU5NTk1OSIgb2Zmc2V0PSIwIi8+PHN0b3Agc3RvcC1jb2xvcj0iIzZlNmU2ZSIgb2Zmc2V0PSIwLjA4NyIvPjxzdG9wIHN0b3AtY29sb3I9IiM4YzhjOGMiIG9mZnNldD0iMC4yNDIiLz48c3RvcCBzdG9wLWNvbG9yPSIjYTRhNGE0IiBvZmZzZXQ9IjAuNDA1Ii8+PHN0b3Agc3RvcC1jb2xvcj0iI2I1YjViNSIgb2Zmc2V0PSIwLjU3NyIvPjxzdG9wIHN0b3AtY29sb3I9IiNiZmJmYmYiIG9mZnNldD0iMC43NjUiLz48c3RvcCBzdG9wLWNvbG9yPSIjYzJjMmMyIiBvZmZzZXQ9IjEiLz48L2xpbmVhckdyYWRpZW50PjxsaW5lYXJHcmFkaWVudCB4bGluazpocmVmPSIjZCIgeTI9IjI2LjE3MSIgeDI9IjE5Ljk0NiIgeTE9IjI2LjE3MSIgeDE9IjE4LjI5MSIgaWQ9ImUiLz48bGluZWFyR3JhZGllbnQgeGxpbms6aHJlZj0iI2QiIHkyPSIyNi4xNzEiIHgyPSIyNi4wOTYiIHkxPSIyNi4xNzEiIHgxPSIyNC40NCIgaWQ9ImYiLz48L2RlZnM+PHRpdGxlPmZpbGVfdHlwZV9wbGFudHVtbDwvdGl0bGU+PHBvbHlnb24gc3R5bGU9ImZpbGw6IzFjMGE0MiIgcG9pbnRzPSIyMC4zMDUgMTcuODcyIDI3LjE2IDIyLjQxOCAyMS43MiAyNS40OTMgMTQuODYxIDIwLjk5OSAyMC4zMDUgMTcuODcyIi8+PHBhdGggZD0iTTIxLjcxNiwyNS42MTlsLS4wNTUtLjAzNi03LjAwNS00LjU5LDUuNjUzLTMuMjQ3LDcuMDU2LDQuNjhabS02LjY1LTQuNjEzLDYuNjU4LDQuMzYyLDUuMjMxLTIuOTU3TDIwLjMsMThaIi8+PHBvbHlnb24gc3R5bGU9ImZpbGw6dXJsKCNhKSIgcG9pbnRzPSIyNi40MDEgMTEuOTA5IDI5LjQxOCAxMy41OTIgMjcuMDcgMTUuMDg4IDI0LjIxMyAxMy4yNDcgMjYuNDAxIDExLjkwOSIvPjxwYXRoIGQ9Ik0yNy4wNjksMTUuMjE1bC0zLjA1OC0xLjk3LDIuMzg3LTEuNDYsMy4yMjgsMS44Wm0tMi42NTQtMS45NjZMMjcuMDcsMTQuOTYsMjkuMjA4LDEzLjZsLTIuOC0xLjU2NVoiLz48cG9seWdvbiBzdHlsZT0iZmlsbDojZmZiZDNmIiBwb2ludHM9IjE0LjQ5OCAxNy44MDcgMjEuMzU0IDIyLjM1NCAxNS45MTQgMjUuNDI5IDkuMDU1IDIwLjkzNSAxNC40OTggMTcuODA3Ii8+PHBhdGggZD0iTTE1LjkxLDI1LjU1NGwtLjA1NS0uMDM2TDguODUsMjAuOTI5LDE0LjUsMTcuNjgxbDcuMDU2LDQuNjhaTTkuMjYsMjAuOTQxLDE1LjkxOCwyNS4zbDUuMjMxLTIuOTU3LTYuNjU0LTQuNDEzWiIvPjxwb2x5Z29uIHN0eWxlPSJmaWxsOiNhMTFmNDAiIHBvaW50cz0iNy45OSAxNy45NjYgMTQuOTU0IDIyLjM2NiA5LjU3NyAyNS41MDQgMi4yMTggMjAuODQ5IDcuOTkgMTcuOTY2Ii8+PHBhdGggZD0iTTkuNTc1LDI1LjYyOSwyLDIwLjgzOGw2LTMsNy4xNjQsNC41MjdaTTIuNDM2LDIwLjg2LDkuNTgsMjUuMzc4bDUuMTY4LTMuMDE2TDcuOTg0LDE4LjA4OVoiLz48cG9seWdvbiBzdHlsZT0iZmlsbDp1cmwoI2IpIiBwb2ludHM9IjIuMTExIDIxLjAyMSA5LjQ0MyAyNS41MTUgOS40NDMgMjkuMDYzIDIuMTExIDI0LjMzMiAyLjExMSAyMS4wMjEiLz48cGF0aCBkPSJNOS41NSwyOS4yNiwyLDI0LjM5MVYyMC44MjlMOS41NSwyNS40NTVaTTIuMjE4LDI0LjI3NGw3LjExOCw0LjU5MlYyNS41NzVMMi4yMTgsMjEuMjEzWiIvPjxwb2x5Z29uIHN0eWxlPSJmaWxsOnVybCgjYykiIHBvaW50cz0iMjQuMDcxIDEzLjM0MyAyNy4wMDkgMTUuMjIyIDI3LjAwOSAyMi4xMzEgMjQuMDcxIDIwLjI0NyAyNC4wNzEgMTMuMzQzIi8+PHBhdGggZD0iTTI3LjA2MywyMi4yMjlsLTMuMDQ1LTEuOTUzVjEzLjI0NWwzLjA0NSwxLjk0N1ptLTIuOTM4LTIuMDEyLDIuODMxLDEuODE1VjE1LjI1MWwtMi44MzEtMS44MVoiLz48cG9seWdvbiBzdHlsZT0iZmlsbDojZmZmIiBwb2ludHM9IjI3LjE0OSAyMi41MjYgMjcuMTQ5IDE1LjE5NCAyOS41MTQgMTMuNzc1IDI5LjUxNCAyOS4xNDkgMjguMzMxIDI5LjE0OSA5LjY0NiAyOS4xNDkgOS42NDYgMjUuNjAxIDE1LjA4NiAyMi41MjYgMTUuNzg1IDI1LjYwMSAxNS43OTYgMjUuNjAxIDIxLjQ3MiAyMi41MjYgMjEuODkxIDI1LjYwMSAyMS45NDUgMjUuNjAxIDI3LjE0OSAyMi41MjYiLz48cGF0aCBkPSJNMjkuNjIxLDI5LjI1Nkg5LjUzOVYyNS41MzhsNS42Mi0zLjE3Ny43LDMuMDgzLDUuNy0zLjA4Ny40MjIsMy4xLDUuMDYxLTIuOTkxVjE1LjEzM2wyLjU4LTEuNTQ4Wk05Ljc1MywyOS4wNDFIMjkuNDA3VjEzLjk2NGwtMi4xNTEsMS4yOXY3LjMzMmwtLjA1My4wMzEtNS4yMjksMy4wOUgyMS44bC0uNDExLTMuMDE0LTUuNTY0LDMuMDE0SDE1LjdsLS42ODYtMy4wMTgtNS4yNiwyLjk3M1oiLz48cmVjdCBzdHlsZT0iZmlsbDp1cmwoI2QpIiByeT0iMC4yMTUiIHJ4PSIwLjIxNSIgaGVpZ2h0PSIxLjY1NiIgd2lkdGg9IjEuNjU2IiB5PSIyNS40NCIgeD0iMTIuMzU2Ii8+PHBhdGggZD0iTTEzLjgsMjcuMkgxMi41N2EuMzIyLjMyMiwwLDAsMS0uMzIyLS4zMjJWMjUuNjU1YS4zMjIuMzIyLDAsMCwxLC4zMjItLjMyMkgxMy44YS4zMjIuMzIyLDAsMCwxLC4zMjIuMzIydjEuMjI2QS4zMjIuMzIyLDAsMCwxLDEzLjgsMjcuMlpNMTIuNTcsMjUuNTQ3YS4xMDguMTA4LDAsMCwwLS4xMDcuMTA3djEuMjI2YS4xMDguMTA4LDAsMCwwLC4xMDcuMTA3SDEzLjhhLjEwOC4xMDgsMCwwLDAsLjEwNy0uMTA3VjI1LjY1NWEuMTA4LjEwOCwwLDAsMC0uMTA3LS4xMDdaIi8+PHJlY3Qgc3R5bGU9ImZpbGw6dXJsKCNlKSIgcnk9IjAuMjE1IiByeD0iMC4yMTUiIGhlaWdodD0iMS42NTYiIHdpZHRoPSIxLjY1NiIgeT0iMjUuMzQzIiB4PSIxOC4yOTEiLz48cGF0aCBkPSJNMTkuNzMyLDI3LjEwNkgxOC41MDVhLjMyMi4zMjIsMCwwLDEtLjMyMi0uMzIyVjI1LjU1OGEuMzIyLjMyMiwwLDAsMSwuMzIyLS4zMjJoMS4yMjZhLjMyMi4zMjIsMCwwLDEsLjMyMi4zMjJ2MS4yMjZBLjMyMi4zMjIsMCwwLDEsMTkuNzMyLDI3LjEwNlptLTEuMjI2LTEuNjU2YS4xMDguMTA4LDAsMCwwLS4xMDcuMTA3djEuMjI2YS4xMDguMTA4LDAsMCwwLC4xMDcuMTA3aDEuMjI2YS4xMDguMTA4LDAsMCwwLC4xMDctLjEwN1YyNS41NThhLjEwOC4xMDgsMCwwLDAtLjEwNy0uMTA3WiIvPjxyZWN0IHN0eWxlPSJmaWxsOnVybCgjZikiIHJ5PSIwLjIxNSIgcng9IjAuMjE1IiBoZWlnaHQ9IjEuNjU2IiB3aWR0aD0iMS42NTYiIHk9IjI1LjM0MyIgeD0iMjQuNDQiLz48cGF0aCBkPSJNMjUuODgxLDI3LjEwNkgyNC42NTVhLjMyMi4zMjIsMCwwLDEtLjMyMi0uMzIyVjI1LjU1OGEuMzIyLjMyMiwwLDAsMSwuMzIyLS4zMjJoMS4yMjZhLjMyMi4zMjIsMCwwLDEsLjMyMi4zMjJ2MS4yMjZBLjMyMi4zMjIsMCwwLDEsMjUuODgxLDI3LjEwNlptLTEuMjI2LTEuNjU2YS4xMDguMTA4LDAsMCwwLS4xMDcuMTA3djEuMjI2YS4xMDguMTA4LDAsMCwwLC4xMDcuMTA3aDEuMjI2YS4xMDguMTA4LDAsMCwwLC4xMDctLjEwN1YyNS41NThhLjEwOC4xMDgsMCwwLDAtLjEwNy0uMTA3WiIvPjxwYXRoIHN0eWxlPSJmaWxsOiNlYTJkMmUiIGQ9Ik0yNy4yMTUsMTEuMjNjLS4wNTIuMDY5LS40MTctLjI2Mi0uNjUzLS41MjZhNC40MDgsNC40MDgsMCwwLDEtLjUxNi0uNzNBMi42LDIuNiwwLDAsMSwyNS43LDkuMmEyLjM1OCwyLjM1OCwwLDAsMS0uMDUyLS42ODIsMi45NTksMi45NTksMCwwLDEsLjEyOS0uNzQ5LDMuMTQyLDMuMTQyLDAsMCwxLC43ODctMS4yMDcsMTUuNTMyLDE1LjUzMiwwLDAsMCwxLjI4My0xLjQsMy4wNjIsMy4wNjIsMCwwLDAsLjQ3OS0uOTI3LDMuOTc5LDMuOTc5LDAsMCwwLC4xNTEtLjg1NWMuMDE5LS4zNjQtLjAyNS0uNTkzLjAyMy0uNjEzcy4yMTUuMjc0LjI4Ny41NjRhMy4xNjcsMy4xNjcsMCwwLDEtLjQ1OCwyLjEsNi45LDYuOSwwLDAsMS0xLjA5NCwxLjQ0OCwyLjgsMi44LDAsMCwwLS44NDksMS4yMzRBMi40NjYsMi40NjYsMCwwLDAsMjYuMyw4LjhhMy40NjUsMy40NjUsMCwwLDAsLjQ3NiwxLjU0MkMyNy4wNjQsMTAuOTE0LDI3LjI1NiwxMS4xNzUsMjcuMjE1LDExLjIzWiIvPjxwYXRoIGQ9Ik0yNy4xOTMsMTEuMjY2Yy0uMTI0LDAtLjQ5Mi0uMzY1LS42NTEtLjU0NGE0LjQ3OCw0LjQ3OCwwLDAsMS0uNTItLjczNCwyLjYyOCwyLjYyOCwwLDAsMS0uMzQ2LS43ODEsMi4zNzUsMi4zNzUsMCwwLDEtLjA1My0uNjksMi45NzgsMi45NzgsMCwwLDEsLjEzLS43NTYsMy4yMDgsMy4yMDgsMCwwLDEsLjc5My0xLjIxNmMuMjk0LS4zMzEuNS0uNTI4LjY1OS0uNjg2YTQuMzkzLDQuMzkzLDAsMCwwLC42MjItLjcxMSwzLjA1MiwzLjA1MiwwLDAsMCwuNDc2LS45MTksMy45NTEsMy45NTEsMCwwLDAsLjE1LS44NDljLjAwOC0uMTU5LDAtLjI5NCwwLS4zOTMsMC0uMTU5LS4wMDYtLjIyNS4wMzgtLjI0M2EuMDUuMDUsMCwwLDEsLjA0MywwLDEuMjI2LDEuMjI2LDAsMCwxLC4yOC41NzksMy4xNjcsMy4xNjcsMCwwLDEtLjQ2LDIuMTIxLDYuOTI4LDYuOTI4LDAsMCwxLTEuMSwxLjQ1M2MtLjA1NS4wNi0uMTA5LjExNi0uMTYyLjE3MWEyLjMsMi4zLDAsMCwwLS42ODEsMS4wNTIsMi40NywyLjQ3LDAsMCwwLS4wODIuNjczLDMuNDU4LDMuNDU4LDAsMCwwLC40NzMsMS41M2MuMTE0LjIzMS4yMTUuNDE1LjI4OS41NDkuMTI5LjIzNS4xNzguMzIzLjE0Mi4zNjloMGEuMDUxLjA1MSwwLDAsMS0uMDQuMDJaTTI4LjUxMiwyLjhhLjg2My44NjMsMCwwLDAsMCwuMTljMCwuMS4wMDcuMjM2LDAsLjRhNC4wMjEsNC4wMjEsMCwwLDEtLjE1Mi44NjEsMy4xMDYsMy4xMDYsMCwwLDEtLjQ4My45MzQsNC40MzcsNC40MzcsMCwwLDEtLjYyOS43MTljLS4xNjIuMTU4LS4zNjQuMzU0LS42NTcuNjgzYTMuMTY4LDMuMTY4LDAsMCwwLS43ODIsMS4yLDIuOTMzLDIuOTMzLDAsMCwwLS4xMjguNzQzLDIuMzI1LDIuMzI1LDAsMCwwLC4wNTIuNjc1LDIuNTksMi41OSwwLDAsMCwuMzQxLjc2Nyw0LjQyMiw0LjQyMiwwLDAsMCwuNTEzLjcyNSwyLjAzNSwyLjAzNSwwLDAsMCwuNjExLjUyNiwxLjE4MywxLjE4MywwLDAsMC0uMTQ3LS4zMWMtLjA3NC0uMTM0LS4xNzUtLjMxOC0uMjktLjU1MUEzLjUsMy41LDAsMCwxLDI2LjI3OCw4LjhhMi41MywyLjUzLDAsMCwxLC4wODQtLjY4OCwyLjM3NSwyLjM3NSwwLDAsMSwuNjk0LTEuMDc1Yy4wNTItLjA1NS4xMDYtLjExMS4xNjEtLjE3MWE2Ljg3OSw2Ljg3OSwwLDAsMCwxLjA5LTEuNDQyLDMuMTE5LDMuMTE5LDAsMCwwLC40NTYtMi4wODNBMS4yODEsMS4yODEsMCwwLDAsMjguNTEyLDIuOFoiLz48cGF0aCBzdHlsZT0iZmlsbDojZWEyZDJlIiBkPSJNMjkuOTcyLDYuMDg3Yy0uMDE5LS4wODgtLjQzMi0uMDQtLjc2Ni4wNzNhMi42LDIuNiwwLDAsMC0xLjA1OS43MjIsMi44LDIuOCwwLDAsMC0uOTE2LDEuODU1LDIuOTcyLDIuOTcyLDAsMCwwLC4yNTgsMS4wNmMuMjIxLjU3Mi40NTUuNzczLjQ0NCwxLjIyNS0uMDA3LjMtLjExNC40ODQtLjA0OC41NDlzLjMxNC0uMS40NjItLjMxM2ExLjgsMS44LDAsMCwwLC4yNTktMS4wMjJjLS4wNDYtLjgxNS0uNi0xLjAxNS0uNjA4LTEuOGExLjg1OCwxLjg1OCwwLDAsMSwuMTI5LS42NzZDMjguNTcsNi41MDksMzAuMDA4LDYuMjUyLDI5Ljk3Miw2LjA4N1oiLz48cGF0aCBkPSJNMjcuOTM0LDExLjYxN2EuMDk0LjA5NCwwLDAsMS0uMDY5LS4wMjZjLS4wNDYtLjA0Ni0uMDMtLjEyMi0uMDA1LS4yMzdhMS43MTgsMS43MTgsMCwwLDAsLjA0NS0uMzMxLDEuMzc0LDEuMzc0LDAsMCwwLS4yMTQtLjcyLDUsNSwwLDAsMS0uMjI4LS40OTUsMi45OCwyLjk4LDAsMCwxLS4yNTktMS4wNywyLjgxLDIuODEsMCwwLDEsLjkyMy0xLjg3NCwyLjY0LDIuNjQsMCwwLDEsMS4wNy0uNzI5LDEuNDgyLDEuNDgyLDAsMCwxLC43NjYtLjFBLjA2NS4wNjUsMCwwLDEsMzAsNi4wODFoMGMuMDE1LjA3LS4wOTIuMTIxLS4zMDYuMjI0YTIuNzMsMi43MywwLDAsMC0xLjU0MiwxLjQ2MywxLjgyNywxLjgyNywwLDAsMC0uMTI3LjY2NywxLjY0NSwxLjY0NSwwLDAsMCwuMjkxLjg4NSwxLjg4OSwxLjg4OSwwLDAsMSwuMzE3LjkxNCwxLjgxNCwxLjgxNCwwLDAsMS0uMjY0LDEuMDM5LjgwOS44MDksMCwwLDEtLjQyMS4zNDJabTEuODg5LTUuNTQ5YTIuMTE3LDIuMTE3LDAsMCwwLS42MDguMTE3LDIuNTg4LDIuNTg4LDAsMCwwLTEuMDQ4LjcxNSwyLjc2NCwyLjc2NCwwLDAsMC0uOTA5LDEuODM3LDIuOTM1LDIuOTM1LDAsMCwwLC4yNTYsMS4wNSw0Ljk1NSw0Ljk1NSwwLDAsMCwuMjI1LjQ5LDEuNDMzLDEuNDMzLDAsMCwxLC4yMi43NDUsMS43NjUsMS43NjUsMCwwLDEtLjA0Ny4zNDFjLS4wMTkuMDkxLS4wMzUuMTYzLS4wMDkuMTg4YS4wNDYuMDQ2LDAsMCwwLC4wMzguMDEuNzY5Ljc2OSwwLDAsMCwuMzgyLS4zMiwxLjc5MywxLjc5MywwLDAsMCwuMjU0LTEuMDA1LDEuODQ0LDEuODQ0LDAsMCwwLS4zMS0uODksMS43MTEsMS43MTEsMCwwLDEtLjMtLjkxMSwxLjg3NywxLjg3NywwLDAsMSwuMTMtLjY4NkEyLjc3NiwyLjc3NiwwLDAsMSwyOS42Nyw2LjI1N2MuMTI2LS4wNjEuMjgzLS4xMzYuMjc3LS4xNjRsLS4wMDgtLjAwN0EuMjY0LjI2NCwwLDAsMCwyOS44MjMsNi4wNjhaIi8+PC9zdmc+" vertex="1" parent="1">
          <mxGeometry x="680" y="240" width="80" height="80" as="geometry" />
        </mxCell>
        <mxCell id="T_JfXPTamvkJ0Fs1aWGe-13" value="Host" style="text;html=1;align=center;verticalAlign=middle;whiteSpace=wrap;rounded=0;" vertex="1" parent="1">
          <mxGeometry x="130" y="570" width="60" height="30" as="geometry" />
        </mxCell>
        <mxCell id="T_JfXPTamvkJ0Fs1aWGe-14" value="VS Code Server" style="text;html=1;align=center;verticalAlign=middle;whiteSpace=wrap;rounded=0;" vertex="1" parent="1">
          <mxGeometry x="400" y="320" width="160" height="30" as="geometry" />
        </mxCell>
        <mxCell id="T_JfXPTamvkJ0Fs1aWGe-15" value="PlantUML Server" style="text;html=1;align=center;verticalAlign=middle;whiteSpace=wrap;rounded=0;" vertex="1" parent="1">
          <mxGeometry x="640" y="320" width="160" height="30" as="geometry" />
        </mxCell>
        <mxCell id="T_JfXPTamvkJ0Fs1aWGe-16" value="VS Code UI" style="text;html=1;align=center;verticalAlign=middle;whiteSpace=wrap;rounded=0;" vertex="1" parent="1">
          <mxGeometry x="160" y="280" width="80" height="30" as="geometry" />
        </mxCell>
        <mxCell id="T_JfXPTamvkJ0Fs1aWGe-17" value="Source Files" style="text;html=1;align=center;verticalAlign=middle;whiteSpace=wrap;rounded=0;" vertex="1" parent="1">
          <mxGeometry x="160" y="440" width="80" height="30" as="geometry" />
        </mxCell>
        <mxCell id="T_JfXPTamvkJ0Fs1aWGe-19" value="Port 8080" style="text;html=1;align=center;verticalAlign=middle;whiteSpace=wrap;rounded=0;" vertex="1" parent="1">
          <mxGeometry x="570" y="330" width="60" height="30" as="geometry" />
        </mxCell>
      </root>
    </mxGraphModel>
  </diagram>
</mxfile>
